<?xml version="1.0" encoding="UTF-8" standalone="no"?>
<!DOCTYPE svg PUBLIC "-//W3C//DTD SVG 1.1//EN"
 "http://www.w3.org/Graphics/SVG/1.1/DTD/svg11.dtd">
<!-- Generated by graphviz version 2.40.1 (20161225.0304)
 -->
<!-- Title: dependencies Pages: 1 -->
<svg width="782pt" height="284pt"
 viewBox="0.00 0.00 782.00 284.00" xmlns="http://www.w3.org/2000/svg" xmlns:xlink="http://www.w3.org/1999/xlink">
<g id="graph0" class="graph" transform="scale(1 1) rotate(0) translate(4 280)">
<title>dependencies</title>
<polygon fill="#ffffff" stroke="transparent" points="-4,4 -4,-280 778,-280 778,4 -4,4"/>
<text text-anchor="start" x="366.0091" y="-42.4" font-family="sans-serif" font-weight="bold" font-size="14.00" fill="#000000">Legend</text>
<polygon fill="#ffffb3" stroke="transparent" points="153,-10 153,-30 173,-30 173,-10 153,-10"/>
<text text-anchor="start" x="176.629" y="-15.4" font-family="sans-serif" font-size="14.00" fill="#000000"> &#160;Declarations</text>
<polygon fill="#8dd3c7" stroke="transparent" points="266,-10 266,-30 286,-30 286,-10 266,-10"/>
<text text-anchor="start" x="289.7251" y="-15.4" font-family="sans-serif" font-size="14.00" fill="#000000"> &#160;Module</text>
<polygon fill="#80b1d3" stroke="transparent" points="352,-10 352,-30 372,-30 372,-10 352,-10"/>
<text text-anchor="start" x="375.7812" y="-15.4" font-family="sans-serif" font-size="14.00" fill="#000000"> &#160;Bootstrap</text>
<polygon fill="#fdb462" stroke="transparent" points="449,-10 449,-30 469,-30 469,-10 449,-10"/>
<text text-anchor="start" x="472.6732" y="-15.4" font-family="sans-serif" font-size="14.00" fill="#000000"> &#160;Providers</text>
<polygon fill="#fb8072" stroke="transparent" points="545,-10 545,-30 565,-30 565,-10 545,-10"/>
<text text-anchor="start" x="568.7258" y="-15.4" font-family="sans-serif" font-size="14.00" fill="#000000"> &#160;Exports</text>
<g id="clust1" class="cluster">
<title>cluster_WebConsoleUIKitModule</title>
<polygon fill="none" stroke="#000000" stroke-dasharray="1,5" points="8,-70 8,-268 766,-268 766,-70 8,-70"/>
</g>
<g id="clust2" class="cluster">
<title>cluster_WebConsoleUIKitModule_declarations</title>
<polygon fill="none" stroke="#000000" points="24,-78 24,-130 752,-130 752,-78 24,-78"/>
</g>
<g id="clust8" class="cluster">
<title>cluster_WebConsoleUIKitModule_exports</title>
<polygon fill="none" stroke="#000000" points="16,-208 16,-260 758,-260 758,-208 16,-208"/>
</g>
<!-- WCDashboardHeaderComponent -->
<g id="node1" class="node">
<title>WCDashboardHeaderComponent</title>
<polygon fill="#ffffb3" stroke="#000000" points="744.4356,-122 539.5644,-122 539.5644,-86 744.4356,-86 744.4356,-122"/>
<text text-anchor="middle" x="642" y="-99.8" font-family="Times,serif" font-size="14.00" fill="#000000">WCDashboardHeaderComponent</text>
</g>
<!-- WebConsoleUIKitModule -->
<g id="node5" class="node">
<title>WebConsoleUIKitModule</title>
<polygon fill="#8dd3c7" stroke="#000000" points="318.0211,-187 315.0211,-191 294.0211,-191 291.0211,-187 153.9789,-187 153.9789,-151 318.0211,-151 318.0211,-187"/>
<text text-anchor="middle" x="236" y="-164.8" font-family="Times,serif" font-size="14.00" fill="#000000">WebConsoleUIKitModule</text>
</g>
<!-- WCDashboardHeaderComponent&#45;&gt;WebConsoleUIKitModule -->
<g id="edge1" class="edge">
<title>WCDashboardHeaderComponent&#45;&gt;WebConsoleUIKitModule</title>
<path fill="none" stroke="#000000" d="M676.9059,-122.0225C676.9059,-139.3734 676.9059,-163 676.9059,-163 676.9059,-163 328.1556,-163 328.1556,-163"/>
<polygon fill="#000000" stroke="#000000" points="328.1557,-159.5001 318.1556,-163 328.1556,-166.5001 328.1557,-159.5001"/>
</g>
<!-- WCGridButtonEditorComponent -->
<g id="node2" class="node">
<title>WCGridButtonEditorComponent</title>
<polygon fill="#ffffb3" stroke="#000000" points="521.1539,-122 318.8461,-122 318.8461,-86 521.1539,-86 521.1539,-122"/>
<text text-anchor="middle" x="420" y="-99.8" font-family="Times,serif" font-size="14.00" fill="#000000">WCGridButtonEditorComponent</text>
</g>
<!-- WCGridButtonEditorComponent&#45;&gt;WebConsoleUIKitModule -->
<g id="edge2" class="edge">
<title>WCGridButtonEditorComponent&#45;&gt;WebConsoleUIKitModule</title>
<path fill="none" stroke="#000000" d="M318.8083,-104C312.9484,-104 309.3766,-104 309.3766,-104 309.3766,-104 309.3766,-140.8939 309.3766,-140.8939"/>
<polygon fill="#000000" stroke="#000000" points="305.8767,-140.8938 309.3766,-150.8939 312.8767,-140.8939 305.8767,-140.8938"/>
</g>
<!-- WCPanelComponent -->
<g id="node3" class="node">
<title>WCPanelComponent</title>
<polygon fill="#ffffb3" stroke="#000000" points="300.486,-122 165.514,-122 165.514,-86 300.486,-86 300.486,-122"/>
<text text-anchor="middle" x="233" y="-99.8" font-family="Times,serif" font-size="14.00" fill="#000000">WCPanelComponent</text>
</g>
<!-- WCPanelComponent&#45;&gt;WebConsoleUIKitModule -->
<g id="edge3" class="edge">
<title>WCPanelComponent&#45;&gt;WebConsoleUIKitModule</title>
<path fill="none" stroke="#000000" d="M233,-122.1061C233,-122.1061 233,-140.991 233,-140.991"/>
<polygon fill="#000000" stroke="#000000" points="229.5001,-140.9909 233,-150.991 236.5001,-140.991 229.5001,-140.9909"/>
</g>
<!-- WCSwitchButton -->
<g id="node4" class="node">
<title>WCSwitchButton</title>
<polygon fill="#ffffb3" stroke="#000000" points="147.5549,-122 32.4451,-122 32.4451,-86 147.5549,-86 147.5549,-122"/>
<text text-anchor="middle" x="90" y="-99.8" font-family="Times,serif" font-size="14.00" fill="#000000">WCSwitchButton</text>
</g>
<!-- WCSwitchButton&#45;&gt;WebConsoleUIKitModule -->
<g id="edge4" class="edge">
<title>WCSwitchButton&#45;&gt;WebConsoleUIKitModule</title>
<path fill="none" stroke="#000000" d="M147.8127,-104C154.8544,-104 159.6234,-104 159.6234,-104 159.6234,-104 159.6234,-140.8939 159.6234,-140.8939"/>
<polygon fill="#000000" stroke="#000000" points="156.1235,-140.8938 159.6234,-150.8939 163.1235,-140.8939 156.1235,-140.8938"/>
</g>
<!-- WCDashboardHeaderComponent  -->
<g id="node6" class="node">
<title>WCDashboardHeaderComponent </title>
<polygon fill="#fb8072" stroke="#000000" points="750.4361,-252 541.5639,-252 541.5639,-216 750.4361,-216 750.4361,-252"/>
<text text-anchor="middle" x="646" y="-229.8" font-family="Times,serif" font-size="14.00" fill="#000000">WCDashboardHeaderComponent </text>
</g>
<!-- WebConsoleUIKitModule&#45;&gt;WCDashboardHeaderComponent  -->
<g id="edge5" class="edge">
<title>WebConsoleUIKitModule&#45;&gt;WCDashboardHeaderComponent </title>
<path fill="none" stroke="#000000" stroke-dasharray="5,2" d="M318.3941,-175C428.34,-175 609.3441,-175 609.3441,-175 609.3441,-175 609.3441,-205.9775 609.3441,-205.9775"/>
<polygon fill="#000000" stroke="#000000" points="605.8442,-205.9774 609.3441,-215.9775 612.8442,-205.9775 605.8442,-205.9774"/>
</g>
<!-- WCGridButtonEditorComponent  -->
<g id="node7" class="node">
<title>WCGridButtonEditorComponent </title>
<polygon fill="#fb8072" stroke="#000000" points="524.1537,-252 317.8463,-252 317.8463,-216 524.1537,-216 524.1537,-252"/>
<text text-anchor="middle" x="421" y="-229.8" font-family="Times,serif" font-size="14.00" fill="#000000">WCGridButtonEditorComponent </text>
</g>
<!-- WebConsoleUIKitModule&#45;&gt;WCGridButtonEditorComponent  -->
<g id="edge6" class="edge">
<title>WebConsoleUIKitModule&#45;&gt;WCGridButtonEditorComponent </title>
<path fill="none" stroke="#000000" stroke-dasharray="5,2" d="M309.0831,-187.1061C309.0831,-206.3391 309.0831,-234 309.0831,-234 309.0831,-234 309.9613,-234 309.9613,-234"/>
<polygon fill="#000000" stroke="#000000" points="307.8651,-237.5001 317.865,-234 307.865,-230.5001 307.8651,-237.5001"/>
</g>
<!-- WCPanelComponent  -->
<g id="node8" class="node">
<title>WCPanelComponent </title>
<polygon fill="#fb8072" stroke="#000000" points="300.4869,-252 161.5131,-252 161.5131,-216 300.4869,-216 300.4869,-252"/>
<text text-anchor="middle" x="231" y="-229.8" font-family="Times,serif" font-size="14.00" fill="#000000">WCPanelComponent </text>
</g>
<!-- WebConsoleUIKitModule&#45;&gt;WCPanelComponent  -->
<g id="edge7" class="edge">
<title>WebConsoleUIKitModule&#45;&gt;WCPanelComponent </title>
<path fill="none" stroke="#000000" stroke-dasharray="5,2" d="M231,-187.1061C231,-187.1061 231,-205.991 231,-205.991"/>
<polygon fill="#000000" stroke="#000000" points="227.5001,-205.9909 231,-215.991 234.5001,-205.991 227.5001,-205.9909"/>
</g>
<!-- WCSwitchButton  -->
<g id="node9" class="node">
<title>WCSwitchButton </title>
<polygon fill="#fb8072" stroke="#000000" points="143.554,-252 24.446,-252 24.446,-216 143.554,-216 143.554,-252"/>
<text text-anchor="middle" x="84" y="-229.8" font-family="Times,serif" font-size="14.00" fill="#000000">WCSwitchButton </text>
</g>
<!-- WebConsoleUIKitModule&#45;&gt;WCSwitchButton  -->
<g id="edge8" class="edge">
<title>WebConsoleUIKitModule&#45;&gt;WCSwitchButton </title>
<path fill="none" stroke="#000000" stroke-dasharray="5,2" d="M157.7484,-187.1061C157.7484,-206.3391 157.7484,-234 157.7484,-234 157.7484,-234 153.529,-234 153.529,-234"/>
<polygon fill="#000000" stroke="#000000" points="153.529,-230.5001 143.529,-234 153.5289,-237.5001 153.529,-230.5001"/>
</g>
</g>
</svg>
