<?xml version="1.0" encoding="UTF-8" standalone="no"?>
<!DOCTYPE svg PUBLIC "-//W3C//DTD SVG 1.1//EN"
 "http://www.w3.org/Graphics/SVG/1.1/DTD/svg11.dtd">
<!-- Generated by graphviz version 2.40.1 (20161225.0304)
 -->
<!-- Title: dependencies Pages: 1 -->
<svg width="1444pt" height="284pt"
 viewBox="0.00 0.00 1444.00 284.00" xmlns="http://www.w3.org/2000/svg" xmlns:xlink="http://www.w3.org/1999/xlink">
<g id="graph0" class="graph" transform="scale(1 1) rotate(0) translate(4 280)">
<title>dependencies</title>
<polygon fill="#ffffff" stroke="transparent" points="-4,4 -4,-280 1440,-280 1440,4 -4,4"/>
<text text-anchor="start" x="697.0091" y="-42.4" font-family="sans-serif" font-weight="bold" font-size="14.00" fill="#000000">Legend</text>
<polygon fill="#ffffb3" stroke="transparent" points="484,-10 484,-30 504,-30 504,-10 484,-10"/>
<text text-anchor="start" x="507.629" y="-15.4" font-family="sans-serif" font-size="14.00" fill="#000000"> &#160;Declarations</text>
<polygon fill="#8dd3c7" stroke="transparent" points="597,-10 597,-30 617,-30 617,-10 597,-10"/>
<text text-anchor="start" x="620.7251" y="-15.4" font-family="sans-serif" font-size="14.00" fill="#000000"> &#160;Module</text>
<polygon fill="#80b1d3" stroke="transparent" points="683,-10 683,-30 703,-30 703,-10 683,-10"/>
<text text-anchor="start" x="706.7812" y="-15.4" font-family="sans-serif" font-size="14.00" fill="#000000"> &#160;Bootstrap</text>
<polygon fill="#fdb462" stroke="transparent" points="780,-10 780,-30 800,-30 800,-10 780,-10"/>
<text text-anchor="start" x="803.6732" y="-15.4" font-family="sans-serif" font-size="14.00" fill="#000000"> &#160;Providers</text>
<polygon fill="#fb8072" stroke="transparent" points="876,-10 876,-30 896,-30 896,-10 876,-10"/>
<text text-anchor="start" x="899.7258" y="-15.4" font-family="sans-serif" font-size="14.00" fill="#000000"> &#160;Exports</text>
<g id="clust1" class="cluster">
<title>cluster_WCUIKitCoreModule</title>
<polygon fill="none" stroke="#000000" stroke-dasharray="1,5" points="8,-70 8,-268 1428,-268 1428,-70 8,-70"/>
</g>
<g id="clust2" class="cluster">
<title>cluster_WCUIKitCoreModule_declarations</title>
<polygon fill="none" stroke="#000000" points="33,-78 33,-130 1409,-130 1409,-78 33,-78"/>
</g>
<g id="clust12" class="cluster">
<title>cluster_WCUIKitCoreModule_exports</title>
<polygon fill="none" stroke="#000000" points="16,-208 16,-260 1420,-260 1420,-208 16,-208"/>
</g>
<!-- WCDashboardHeaderComponent -->
<g id="node1" class="node">
<title>WCDashboardHeaderComponent</title>
<polygon fill="#ffffb3" stroke="#000000" points="1401.4356,-122 1196.5644,-122 1196.5644,-86 1401.4356,-86 1401.4356,-122"/>
<text text-anchor="middle" x="1299" y="-99.8" font-family="Times,serif" font-size="14.00" fill="#000000">WCDashboardHeaderComponent</text>
</g>
<!-- WCUIKitCoreModule -->
<g id="node9" class="node">
<title>WCUIKitCoreModule</title>
<polygon fill="#8dd3c7" stroke="#000000" points="657.9678,-187 654.9678,-191 633.9678,-191 630.9678,-187 516.0322,-187 516.0322,-151 657.9678,-151 657.9678,-187"/>
<text text-anchor="middle" x="587" y="-164.8" font-family="Times,serif" font-size="14.00" fill="#000000">WCUIKitCoreModule</text>
</g>
<!-- WCDashboardHeaderComponent&#45;&gt;WCUIKitCoreModule -->
<g id="edge1" class="edge">
<title>WCDashboardHeaderComponent&#45;&gt;WCUIKitCoreModule</title>
<path fill="none" stroke="#000000" d="M1200.1572,-122.2222C1200.1572,-140.8285 1200.1572,-167 1200.1572,-167 1200.1572,-167 668.2362,-167 668.2362,-167"/>
<polygon fill="#000000" stroke="#000000" points="668.2362,-163.5001 658.2362,-167 668.2361,-170.5001 668.2362,-163.5001"/>
</g>
<!-- WCPanelComponent -->
<g id="node2" class="node">
<title>WCPanelComponent</title>
<polygon fill="#ffffb3" stroke="#000000" points="1178.486,-122 1043.514,-122 1043.514,-86 1178.486,-86 1178.486,-122"/>
<text text-anchor="middle" x="1111" y="-99.8" font-family="Times,serif" font-size="14.00" fill="#000000">WCPanelComponent</text>
</g>
<!-- WCPanelComponent&#45;&gt;WCUIKitCoreModule -->
<g id="edge2" class="edge">
<title>WCPanelComponent&#45;&gt;WCUIKitCoreModule</title>
<path fill="none" stroke="#000000" d="M1134.9143,-122.0336C1134.9143,-139.0597 1134.9143,-162 1134.9143,-162 1134.9143,-162 668.0685,-162 668.0685,-162"/>
<polygon fill="#000000" stroke="#000000" points="668.0686,-158.5001 658.0685,-162 668.0685,-165.5001 668.0686,-158.5001"/>
</g>
<!-- WCPropertyEditorComponent -->
<g id="node3" class="node">
<title>WCPropertyEditorComponent</title>
<polygon fill="#ffffb3" stroke="#000000" points="1025.587,-122 838.413,-122 838.413,-86 1025.587,-86 1025.587,-122"/>
<text text-anchor="middle" x="932" y="-99.8" font-family="Times,serif" font-size="14.00" fill="#000000">WCPropertyEditorComponent</text>
</g>
<!-- WCPropertyEditorComponent&#45;&gt;WCUIKitCoreModule -->
<g id="edge3" class="edge">
<title>WCPropertyEditorComponent&#45;&gt;WCUIKitCoreModule</title>
<path fill="none" stroke="#000000" d="M963.2645,-122.2396C963.2645,-137.5706 963.2645,-157 963.2645,-157 963.2645,-157 668.2148,-157 668.2148,-157"/>
<polygon fill="#000000" stroke="#000000" points="668.2149,-153.5001 658.2148,-157 668.2148,-160.5001 668.2149,-153.5001"/>
</g>
<!-- WCSlidePanelComponent -->
<g id="node4" class="node">
<title>WCSlidePanelComponent</title>
<polygon fill="#ffffb3" stroke="#000000" points="820.7646,-122 657.2354,-122 657.2354,-86 820.7646,-86 820.7646,-122"/>
<text text-anchor="middle" x="739" y="-99.8" font-family="Times,serif" font-size="14.00" fill="#000000">WCSlidePanelComponent</text>
</g>
<!-- WCSlidePanelComponent&#45;&gt;WCUIKitCoreModule -->
<g id="edge4" class="edge">
<title>WCSlidePanelComponent&#45;&gt;WCUIKitCoreModule</title>
<path fill="none" stroke="#000000" d="M657.0108,-104C651.4208,-104 647.9474,-104 647.9474,-104 647.9474,-104 647.9474,-140.8939 647.9474,-140.8939"/>
<polygon fill="#000000" stroke="#000000" points="644.4475,-140.8938 647.9474,-150.8939 651.4475,-140.8939 644.4475,-140.8938"/>
</g>
<!-- WCSwitchButton -->
<g id="node5" class="node">
<title>WCSwitchButton</title>
<polygon fill="#ffffb3" stroke="#000000" points="638.5549,-122 523.4451,-122 523.4451,-86 638.5549,-86 638.5549,-122"/>
<text text-anchor="middle" x="581" y="-99.8" font-family="Times,serif" font-size="14.00" fill="#000000">WCSwitchButton</text>
</g>
<!-- WCSwitchButton&#45;&gt;WCUIKitCoreModule -->
<g id="edge5" class="edge">
<title>WCSwitchButton&#45;&gt;WCUIKitCoreModule</title>
<path fill="none" stroke="#000000" d="M581,-122.1061C581,-122.1061 581,-140.991 581,-140.991"/>
<polygon fill="#000000" stroke="#000000" points="577.5001,-140.9909 581,-150.991 584.5001,-140.991 577.5001,-140.9909"/>
</g>
<!-- WCSwitchControl -->
<g id="node6" class="node">
<title>WCSwitchControl</title>
<polygon fill="#ffffb3" stroke="#000000" points="505.2148,-122 384.7852,-122 384.7852,-86 505.2148,-86 505.2148,-122"/>
<text text-anchor="middle" x="445" y="-99.8" font-family="Times,serif" font-size="14.00" fill="#000000">WCSwitchControl</text>
</g>
<!-- WCSwitchControl&#45;&gt;WCUIKitCoreModule -->
<g id="edge6" class="edge">
<title>WCSwitchControl&#45;&gt;WCUIKitCoreModule</title>
<path fill="none" stroke="#000000" d="M505.2322,-104C513.717,-104 519.6196,-104 519.6196,-104 519.6196,-104 519.6196,-140.8939 519.6196,-140.8939"/>
<polygon fill="#000000" stroke="#000000" points="516.1196,-140.8938 519.6196,-150.8939 523.1196,-140.8939 516.1196,-140.8938"/>
</g>
<!-- WCTabItemComponent -->
<g id="node7" class="node">
<title>WCTabItemComponent</title>
<polygon fill="#ffffb3" stroke="#000000" points="366.8075,-122 215.1925,-122 215.1925,-86 366.8075,-86 366.8075,-122"/>
<text text-anchor="middle" x="291" y="-99.8" font-family="Times,serif" font-size="14.00" fill="#000000">WCTabItemComponent</text>
</g>
<!-- WCTabItemComponent&#45;&gt;WCUIKitCoreModule -->
<g id="edge7" class="edge">
<title>WCTabItemComponent&#45;&gt;WCUIKitCoreModule</title>
<path fill="none" stroke="#000000" d="M362.0286,-122.2396C362.0286,-137.5706 362.0286,-157 362.0286,-157 362.0286,-157 505.8176,-157 505.8176,-157"/>
<polygon fill="#000000" stroke="#000000" points="505.8177,-160.5001 515.8176,-157 505.8176,-153.5001 505.8177,-160.5001"/>
</g>
<!-- WCTabPanelComponent -->
<g id="node8" class="node">
<title>WCTabPanelComponent</title>
<polygon fill="#ffffb3" stroke="#000000" points="197.2534,-122 40.7466,-122 40.7466,-86 197.2534,-86 197.2534,-122"/>
<text text-anchor="middle" x="119" y="-99.8" font-family="Times,serif" font-size="14.00" fill="#000000">WCTabPanelComponent</text>
</g>
<!-- WCTabPanelComponent&#45;&gt;WCUIKitCoreModule -->
<g id="edge8" class="edge">
<title>WCTabPanelComponent&#45;&gt;WCUIKitCoreModule</title>
<path fill="none" stroke="#000000" d="M190.7516,-122.0225C190.7516,-139.3734 190.7516,-163 190.7516,-163 190.7516,-163 505.7011,-163 505.7011,-163"/>
<polygon fill="#000000" stroke="#000000" points="505.7011,-166.5001 515.7011,-163 505.7011,-159.5001 505.7011,-166.5001"/>
</g>
<!-- WCDashboardHeaderComponent  -->
<g id="node10" class="node">
<title>WCDashboardHeaderComponent </title>
<polygon fill="#fb8072" stroke="#000000" points="1412.4361,-252 1203.5639,-252 1203.5639,-216 1412.4361,-216 1412.4361,-252"/>
<text text-anchor="middle" x="1308" y="-229.8" font-family="Times,serif" font-size="14.00" fill="#000000">WCDashboardHeaderComponent </text>
</g>
<!-- WCUIKitCoreModule&#45;&gt;WCDashboardHeaderComponent  -->
<g id="edge9" class="edge">
<title>WCUIKitCoreModule&#45;&gt;WCDashboardHeaderComponent </title>
<path fill="none" stroke="#000000" stroke-dasharray="5,2" d="M658.2331,-172C839.2421,-172 1302.625,-172 1302.625,-172 1302.625,-172 1302.625,-205.7333 1302.625,-205.7333"/>
<polygon fill="#000000" stroke="#000000" points="1299.1251,-205.7333 1302.625,-215.7333 1306.1251,-205.7333 1299.1251,-205.7333"/>
</g>
<!-- WCPanelComponent  -->
<g id="node11" class="node">
<title>WCPanelComponent </title>
<polygon fill="#fb8072" stroke="#000000" points="1186.4869,-252 1047.5131,-252 1047.5131,-216 1186.4869,-216 1186.4869,-252"/>
<text text-anchor="middle" x="1117" y="-229.8" font-family="Times,serif" font-size="14.00" fill="#000000">WCPanelComponent </text>
</g>
<!-- WCUIKitCoreModule&#45;&gt;WCPanelComponent  -->
<g id="edge10" class="edge">
<title>WCUIKitCoreModule&#45;&gt;WCPanelComponent </title>
<path fill="none" stroke="#000000" stroke-dasharray="5,2" d="M658.1893,-177C797.2098,-177 1091.3357,-177 1091.3357,-177 1091.3357,-177 1091.3357,-205.9648 1091.3357,-205.9648"/>
<polygon fill="#000000" stroke="#000000" points="1087.8358,-205.9648 1091.3357,-215.9648 1094.8358,-205.9649 1087.8358,-205.9648"/>
</g>
<!-- WCPropertyEditorComponent  -->
<g id="node12" class="node">
<title>WCPropertyEditorComponent </title>
<polygon fill="#fb8072" stroke="#000000" points="1029.0874,-252 838.9126,-252 838.9126,-216 1029.0874,-216 1029.0874,-252"/>
<text text-anchor="middle" x="934" y="-229.8" font-family="Times,serif" font-size="14.00" fill="#000000">WCPropertyEditorComponent </text>
</g>
<!-- WCUIKitCoreModule&#45;&gt;WCPropertyEditorComponent  -->
<g id="edge11" class="edge">
<title>WCUIKitCoreModule&#45;&gt;WCPropertyEditorComponent </title>
<path fill="none" stroke="#000000" stroke-dasharray="5,2" d="M658.2482,-182C750.8871,-182 900.9855,-182 900.9855,-182 900.9855,-182 900.9855,-205.8129 900.9855,-205.8129"/>
<polygon fill="#000000" stroke="#000000" points="897.4856,-205.8129 900.9855,-215.8129 904.4856,-205.813 897.4856,-205.8129"/>
</g>
<!-- WCSlidePanelComponent  -->
<g id="node13" class="node">
<title>WCSlidePanelComponent </title>
<polygon fill="#fb8072" stroke="#000000" points="820.7646,-252 653.2354,-252 653.2354,-216 820.7646,-216 820.7646,-252"/>
<text text-anchor="middle" x="737" y="-229.8" font-family="Times,serif" font-size="14.00" fill="#000000">WCSlidePanelComponent </text>
</g>
<!-- WCUIKitCoreModule&#45;&gt;WCSlidePanelComponent  -->
<g id="edge12" class="edge">
<title>WCUIKitCoreModule&#45;&gt;WCSlidePanelComponent </title>
<path fill="none" stroke="#000000" stroke-dasharray="5,2" d="M644.4474,-187.1061C644.4474,-206.3391 644.4474,-234 644.4474,-234 644.4474,-234 645.3348,-234 645.3348,-234"/>
<polygon fill="#000000" stroke="#000000" points="643.3218,-237.5001 653.3217,-234 643.3217,-230.5001 643.3218,-237.5001"/>
</g>
<!-- WCSwitchButton  -->
<g id="node14" class="node">
<title>WCSwitchButton </title>
<polygon fill="#fb8072" stroke="#000000" points="635.554,-252 516.446,-252 516.446,-216 635.554,-216 635.554,-252"/>
<text text-anchor="middle" x="576" y="-229.8" font-family="Times,serif" font-size="14.00" fill="#000000">WCSwitchButton </text>
</g>
<!-- WCUIKitCoreModule&#45;&gt;WCSwitchButton  -->
<g id="edge13" class="edge">
<title>WCUIKitCoreModule&#45;&gt;WCSwitchButton </title>
<path fill="none" stroke="#000000" stroke-dasharray="5,2" d="M576,-187.1061C576,-187.1061 576,-205.991 576,-205.991"/>
<polygon fill="#000000" stroke="#000000" points="572.5001,-205.9909 576,-215.991 579.5001,-205.991 572.5001,-205.9909"/>
</g>
<!-- WCSwitchControl  -->
<g id="node15" class="node">
<title>WCSwitchControl </title>
<polygon fill="#fb8072" stroke="#000000" points="498.7149,-252 375.2851,-252 375.2851,-216 498.7149,-216 498.7149,-252"/>
<text text-anchor="middle" x="437" y="-229.8" font-family="Times,serif" font-size="14.00" fill="#000000">WCSwitchControl </text>
</g>
<!-- WCUIKitCoreModule&#45;&gt;WCSwitchControl  -->
<g id="edge14" class="edge">
<title>WCUIKitCoreModule&#45;&gt;WCSwitchControl </title>
<path fill="none" stroke="#000000" stroke-dasharray="5,2" d="M515.713,-181C479.0116,-181 441.875,-181 441.875,-181 441.875,-181 441.875,-205.7604 441.875,-205.7604"/>
<polygon fill="#000000" stroke="#000000" points="438.3751,-205.7604 441.875,-215.7604 445.3751,-205.7604 438.3751,-205.7604"/>
</g>
<!-- WCTabItemComponent  -->
<g id="node16" class="node">
<title>WCTabItemComponent </title>
<polygon fill="#fb8072" stroke="#000000" points="357.3073,-252 202.6927,-252 202.6927,-216 357.3073,-216 357.3073,-252"/>
<text text-anchor="middle" x="280" y="-229.8" font-family="Times,serif" font-size="14.00" fill="#000000">WCTabItemComponent </text>
</g>
<!-- WCUIKitCoreModule&#45;&gt;WCTabItemComponent  -->
<g id="edge15" class="edge">
<title>WCUIKitCoreModule&#45;&gt;WCTabItemComponent </title>
<path fill="none" stroke="#000000" stroke-dasharray="5,2" d="M515.7561,-175C426.8572,-175 286.375,-175 286.375,-175 286.375,-175 286.375,-205.9775 286.375,-205.9775"/>
<polygon fill="#000000" stroke="#000000" points="282.8751,-205.9774 286.375,-215.9775 289.8751,-205.9775 282.8751,-205.9774"/>
</g>
<!-- WCTabPanelComponent  -->
<g id="node17" class="node">
<title>WCTabPanelComponent </title>
<polygon fill="#fb8072" stroke="#000000" points="184.2534,-252 23.7466,-252 23.7466,-216 184.2534,-216 184.2534,-252"/>
<text text-anchor="middle" x="104" y="-229.8" font-family="Times,serif" font-size="14.00" fill="#000000">WCTabPanelComponent </text>
</g>
<!-- WCUIKitCoreModule&#45;&gt;WCTabPanelComponent  -->
<g id="edge16" class="edge">
<title>WCUIKitCoreModule&#45;&gt;WCTabPanelComponent </title>
<path fill="none" stroke="#000000" stroke-dasharray="5,2" d="M515.9438,-169C383.5394,-169 112.375,-169 112.375,-169 112.375,-169 112.375,-205.8939 112.375,-205.8939"/>
<polygon fill="#000000" stroke="#000000" points="108.8751,-205.8938 112.375,-215.8939 115.8751,-205.8939 108.8751,-205.8938"/>
</g>
</g>
</svg>
