<?xml version="1.0" encoding="UTF-8" standalone="no"?>
<!DOCTYPE svg PUBLIC "-//W3C//DTD SVG 1.1//EN"
 "http://www.w3.org/Graphics/SVG/1.1/DTD/svg11.dtd">
<!-- Generated by graphviz version 2.40.1 (20161225.0304)
 -->
<!-- Title: dependencies Pages: 1 -->
<svg width="538pt" height="284pt"
 viewBox="0.00 0.00 538.00 284.00" xmlns="http://www.w3.org/2000/svg" xmlns:xlink="http://www.w3.org/1999/xlink">
<g id="graph0" class="graph" transform="scale(1 1) rotate(0) translate(4 280)">
<title>dependencies</title>
<polygon fill="#ffffff" stroke="transparent" points="-4,4 -4,-280 534,-280 534,4 -4,4"/>
<text text-anchor="start" x="244.0091" y="-42.4" font-family="sans-serif" font-weight="bold" font-size="14.00" fill="#000000">Legend</text>
<polygon fill="#ffffb3" stroke="transparent" points="31,-10 31,-30 51,-30 51,-10 31,-10"/>
<text text-anchor="start" x="54.629" y="-15.4" font-family="sans-serif" font-size="14.00" fill="#000000"> &#160;Declarations</text>
<polygon fill="#8dd3c7" stroke="transparent" points="144,-10 144,-30 164,-30 164,-10 144,-10"/>
<text text-anchor="start" x="167.7251" y="-15.4" font-family="sans-serif" font-size="14.00" fill="#000000"> &#160;Module</text>
<polygon fill="#80b1d3" stroke="transparent" points="230,-10 230,-30 250,-30 250,-10 230,-10"/>
<text text-anchor="start" x="253.7812" y="-15.4" font-family="sans-serif" font-size="14.00" fill="#000000"> &#160;Bootstrap</text>
<polygon fill="#fdb462" stroke="transparent" points="327,-10 327,-30 347,-30 347,-10 327,-10"/>
<text text-anchor="start" x="350.6732" y="-15.4" font-family="sans-serif" font-size="14.00" fill="#000000"> &#160;Providers</text>
<polygon fill="#fb8072" stroke="transparent" points="423,-10 423,-30 443,-30 443,-10 423,-10"/>
<text text-anchor="start" x="446.7258" y="-15.4" font-family="sans-serif" font-size="14.00" fill="#000000"> &#160;Exports</text>
<g id="clust1" class="cluster">
<title>cluster_WebConsoleUIKitDataModule</title>
<polygon fill="none" stroke="#000000" stroke-dasharray="1,5" points="8,-70 8,-268 522,-268 522,-70 8,-70"/>
</g>
<g id="clust2" class="cluster">
<title>cluster_WebConsoleUIKitDataModule_declarations</title>
<polygon fill="none" stroke="#000000" points="92,-78 92,-130 442,-130 442,-78 92,-78"/>
</g>
<g id="clust6" class="cluster">
<title>cluster_WebConsoleUIKitDataModule_exports</title>
<polygon fill="none" stroke="#000000" points="16,-208 16,-260 514,-260 514,-208 16,-208"/>
</g>
<!-- WCDataCounterComponent -->
<g id="node1" class="node">
<title>WCDataCounterComponent</title>
<polygon fill="#ffffb3" stroke="#000000" points="433.9129,-122 258.0871,-122 258.0871,-86 433.9129,-86 433.9129,-122"/>
<text text-anchor="middle" x="346" y="-99.8" font-family="Times,serif" font-size="14.00" fill="#000000">WCDataCounterComponent</text>
</g>
<!-- WebConsoleUIKitDataModule -->
<g id="node3" class="node">
<title>WebConsoleUIKitDataModule</title>
<polygon fill="#8dd3c7" stroke="#000000" points="370.4468,-187 367.4468,-191 346.4468,-191 343.4468,-187 179.5532,-187 179.5532,-151 370.4468,-151 370.4468,-187"/>
<text text-anchor="middle" x="275" y="-164.8" font-family="Times,serif" font-size="14.00" fill="#000000">WebConsoleUIKitDataModule</text>
</g>
<!-- WCDataCounterComponent&#45;&gt;WebConsoleUIKitDataModule -->
<g id="edge1" class="edge">
<title>WCDataCounterComponent&#45;&gt;WebConsoleUIKitDataModule</title>
<path fill="none" stroke="#000000" d="M314.3836,-122.1061C314.3836,-122.1061 314.3836,-140.991 314.3836,-140.991"/>
<polygon fill="#000000" stroke="#000000" points="310.8837,-140.9909 314.3836,-150.991 317.8837,-140.991 310.8837,-140.9909"/>
</g>
<!-- WCGaugeComponent -->
<g id="node2" class="node">
<title>WCGaugeComponent</title>
<polygon fill="#ffffb3" stroke="#000000" points="240.42,-122 99.58,-122 99.58,-86 240.42,-86 240.42,-122"/>
<text text-anchor="middle" x="170" y="-99.8" font-family="Times,serif" font-size="14.00" fill="#000000">WCGaugeComponent</text>
</g>
<!-- WCGaugeComponent&#45;&gt;WebConsoleUIKitDataModule -->
<g id="edge2" class="edge">
<title>WCGaugeComponent&#45;&gt;WebConsoleUIKitDataModule</title>
<path fill="none" stroke="#000000" d="M209.8682,-122.1061C209.8682,-122.1061 209.8682,-140.991 209.8682,-140.991"/>
<polygon fill="#000000" stroke="#000000" points="206.3682,-140.9909 209.8682,-150.991 213.3682,-140.991 206.3682,-140.9909"/>
</g>
<!-- NgxGaugeModule  -->
<g id="node4" class="node">
<title>NgxGaugeModule </title>
<polygon fill="#fb8072" stroke="#000000" points="505.6926,-252 382.3074,-252 382.3074,-216 505.6926,-216 505.6926,-252"/>
<text text-anchor="middle" x="444" y="-229.8" font-family="Times,serif" font-size="14.00" fill="#000000">NgxGaugeModule </text>
</g>
<!-- WebConsoleUIKitDataModule&#45;&gt;NgxGaugeModule  -->
<g id="edge3" class="edge">
<title>WebConsoleUIKitDataModule&#45;&gt;NgxGaugeModule </title>
<path fill="none" stroke="#000000" stroke-dasharray="5,2" d="M370.5479,-169C391.6824,-169 407.9301,-169 407.9301,-169 407.9301,-169 407.9301,-205.8939 407.9301,-205.8939"/>
<polygon fill="#000000" stroke="#000000" points="404.4301,-205.8938 407.9301,-215.8939 411.4301,-205.8939 404.4301,-205.8938"/>
</g>
<!-- WCDataCounterComponent  -->
<g id="node5" class="node">
<title>WCDataCounterComponent </title>
<polygon fill="#fb8072" stroke="#000000" points="364.4124,-252 185.5876,-252 185.5876,-216 364.4124,-216 364.4124,-252"/>
<text text-anchor="middle" x="275" y="-229.8" font-family="Times,serif" font-size="14.00" fill="#000000">WCDataCounterComponent </text>
</g>
<!-- WebConsoleUIKitDataModule&#45;&gt;WCDataCounterComponent  -->
<g id="edge4" class="edge">
<title>WebConsoleUIKitDataModule&#45;&gt;WCDataCounterComponent </title>
<path fill="none" stroke="#000000" stroke-dasharray="5,2" d="M275,-187.1061C275,-187.1061 275,-205.991 275,-205.991"/>
<polygon fill="#000000" stroke="#000000" points="271.5001,-205.9909 275,-215.991 278.5001,-205.991 271.5001,-205.9909"/>
</g>
<!-- WCGaugeComponent  -->
<g id="node6" class="node">
<title>WCGaugeComponent </title>
<polygon fill="#fb8072" stroke="#000000" points="167.9194,-252 24.0806,-252 24.0806,-216 167.9194,-216 167.9194,-252"/>
<text text-anchor="middle" x="96" y="-229.8" font-family="Times,serif" font-size="14.00" fill="#000000">WCGaugeComponent </text>
</g>
<!-- WebConsoleUIKitDataModule&#45;&gt;WCGaugeComponent  -->
<g id="edge5" class="edge">
<title>WebConsoleUIKitDataModule&#45;&gt;WCGaugeComponent </title>
<path fill="none" stroke="#000000" stroke-dasharray="5,2" d="M179.3047,-169C154.1363,-169 133.875,-169 133.875,-169 133.875,-169 133.875,-205.8939 133.875,-205.8939"/>
<polygon fill="#000000" stroke="#000000" points="130.3751,-205.8938 133.875,-215.8939 137.3751,-205.8939 130.3751,-205.8938"/>
</g>
</g>
</svg>
