<?xml version="1.0" encoding="UTF-8" standalone="no"?>
<!DOCTYPE svg PUBLIC "-//W3C//DTD SVG 1.1//EN"
 "http://www.w3.org/Graphics/SVG/1.1/DTD/svg11.dtd">
<!-- Generated by graphviz version 2.40.1 (20161225.0304)
 -->
<!-- Title: dependencies Pages: 1 -->
<svg width="684pt" height="284pt"
 viewBox="0.00 0.00 684.00 284.00" xmlns="http://www.w3.org/2000/svg" xmlns:xlink="http://www.w3.org/1999/xlink">
<g id="graph0" class="graph" transform="scale(1 1) rotate(0) translate(4 280)">
<title>dependencies</title>
<polygon fill="#ffffff" stroke="transparent" points="-4,4 -4,-280 680,-280 680,4 -4,4"/>
<text text-anchor="start" x="317.0091" y="-42.4" font-family="sans-serif" font-weight="bold" font-size="14.00" fill="#000000">Legend</text>
<polygon fill="#ffffb3" stroke="transparent" points="104,-10 104,-30 124,-30 124,-10 104,-10"/>
<text text-anchor="start" x="127.629" y="-15.4" font-family="sans-serif" font-size="14.00" fill="#000000"> &#160;Declarations</text>
<polygon fill="#8dd3c7" stroke="transparent" points="217,-10 217,-30 237,-30 237,-10 217,-10"/>
<text text-anchor="start" x="240.7251" y="-15.4" font-family="sans-serif" font-size="14.00" fill="#000000"> &#160;Module</text>
<polygon fill="#80b1d3" stroke="transparent" points="303,-10 303,-30 323,-30 323,-10 303,-10"/>
<text text-anchor="start" x="326.7812" y="-15.4" font-family="sans-serif" font-size="14.00" fill="#000000"> &#160;Bootstrap</text>
<polygon fill="#fdb462" stroke="transparent" points="400,-10 400,-30 420,-30 420,-10 400,-10"/>
<text text-anchor="start" x="423.6732" y="-15.4" font-family="sans-serif" font-size="14.00" fill="#000000"> &#160;Providers</text>
<polygon fill="#fb8072" stroke="transparent" points="496,-10 496,-30 516,-30 516,-10 496,-10"/>
<text text-anchor="start" x="519.7258" y="-15.4" font-family="sans-serif" font-size="14.00" fill="#000000"> &#160;Exports</text>
<g id="clust1" class="cluster">
<title>cluster_NgxGaugeModule</title>
<polygon fill="none" stroke="#000000" stroke-dasharray="1,5" points="8,-70 8,-268 668,-268 668,-70 8,-70"/>
</g>
<g id="clust2" class="cluster">
<title>cluster_NgxGaugeModule_declarations</title>
<polygon fill="none" stroke="#000000" points="25,-78 25,-130 652,-130 652,-78 25,-78"/>
</g>
<g id="clust9" class="cluster">
<title>cluster_NgxGaugeModule_exports</title>
<polygon fill="none" stroke="#000000" points="16,-208 16,-260 660,-260 660,-208 16,-208"/>
</g>
<!-- NgxGauge -->
<g id="node1" class="node">
<title>NgxGauge</title>
<polygon fill="#ffffb3" stroke="#000000" points="644.1432,-122 567.8568,-122 567.8568,-86 644.1432,-86 644.1432,-122"/>
<text text-anchor="middle" x="606" y="-99.8" font-family="Times,serif" font-size="14.00" fill="#000000">NgxGauge</text>
</g>
<!-- NgxGaugeModule -->
<g id="node6" class="node">
<title>NgxGaugeModule</title>
<polygon fill="#8dd3c7" stroke="#000000" points="416.1924,-187 413.1924,-191 392.1924,-191 389.1924,-187 295.8076,-187 295.8076,-151 416.1924,-151 416.1924,-187"/>
<text text-anchor="middle" x="356" y="-164.8" font-family="Times,serif" font-size="14.00" fill="#000000">NgxGaugeModule</text>
</g>
<!-- NgxGauge&#45;&gt;NgxGaugeModule -->
<g id="edge1" class="edge">
<title>NgxGauge&#45;&gt;NgxGaugeModule</title>
<path fill="none" stroke="#000000" d="M620.1904,-122.2667C620.1904,-140.5552 620.1904,-166 620.1904,-166 620.1904,-166 426.2795,-166 426.2795,-166"/>
<polygon fill="#000000" stroke="#000000" points="426.2795,-162.5001 416.2795,-166 426.2794,-169.5001 426.2795,-162.5001"/>
</g>
<!-- NgxGaugeAppend -->
<g id="node2" class="node">
<title>NgxGaugeAppend</title>
<polygon fill="#ffffb3" stroke="#000000" points="549.4636,-122 428.5364,-122 428.5364,-86 549.4636,-86 549.4636,-122"/>
<text text-anchor="middle" x="489" y="-99.8" font-family="Times,serif" font-size="14.00" fill="#000000">NgxGaugeAppend</text>
</g>
<!-- NgxGaugeAppend&#45;&gt;NgxGaugeModule -->
<g id="edge2" class="edge">
<title>NgxGaugeAppend&#45;&gt;NgxGaugeModule</title>
<path fill="none" stroke="#000000" d="M509.5773,-122.0091C509.5773,-138.0494 509.5773,-159 509.5773,-159 509.5773,-159 426.257,-159 426.257,-159"/>
<polygon fill="#000000" stroke="#000000" points="426.2571,-155.5001 416.257,-159 426.257,-162.5001 426.2571,-155.5001"/>
</g>
<!-- NgxGaugeLabel -->
<g id="node3" class="node">
<title>NgxGaugeLabel</title>
<polygon fill="#ffffb3" stroke="#000000" points="410.0159,-122 301.9841,-122 301.9841,-86 410.0159,-86 410.0159,-122"/>
<text text-anchor="middle" x="356" y="-99.8" font-family="Times,serif" font-size="14.00" fill="#000000">NgxGaugeLabel</text>
</g>
<!-- NgxGaugeLabel&#45;&gt;NgxGaugeModule -->
<g id="edge3" class="edge">
<title>NgxGaugeLabel&#45;&gt;NgxGaugeModule</title>
<path fill="none" stroke="#000000" d="M356,-122.1061C356,-122.1061 356,-140.991 356,-140.991"/>
<polygon fill="#000000" stroke="#000000" points="352.5001,-140.9909 356,-150.991 359.5001,-140.991 352.5001,-140.9909"/>
</g>
<!-- NgxGaugePrepend -->
<g id="node4" class="node">
<title>NgxGaugePrepend</title>
<polygon fill="#ffffb3" stroke="#000000" points="283.0158,-122 160.9842,-122 160.9842,-86 283.0158,-86 283.0158,-122"/>
<text text-anchor="middle" x="222" y="-99.8" font-family="Times,serif" font-size="14.00" fill="#000000">NgxGaugePrepend</text>
</g>
<!-- NgxGaugePrepend&#45;&gt;NgxGaugeModule -->
<g id="edge4" class="edge">
<title>NgxGaugePrepend&#45;&gt;NgxGaugeModule</title>
<path fill="none" stroke="#000000" d="M241.5858,-122.0091C241.5858,-138.0494 241.5858,-159 241.5858,-159 241.5858,-159 285.7774,-159 285.7774,-159"/>
<polygon fill="#000000" stroke="#000000" points="285.7774,-162.5001 295.7774,-159 285.7773,-155.5001 285.7774,-162.5001"/>
</g>
<!-- NgxGaugeValue -->
<g id="node5" class="node">
<title>NgxGaugeValue</title>
<polygon fill="#ffffb3" stroke="#000000" points="143.0688,-122 32.9312,-122 32.9312,-86 143.0688,-86 143.0688,-122"/>
<text text-anchor="middle" x="88" y="-99.8" font-family="Times,serif" font-size="14.00" fill="#000000">NgxGaugeValue</text>
</g>
<!-- NgxGaugeValue&#45;&gt;NgxGaugeModule -->
<g id="edge5" class="edge">
<title>NgxGaugeValue&#45;&gt;NgxGaugeModule</title>
<path fill="none" stroke="#000000" d="M102.8448,-122.2667C102.8448,-140.5552 102.8448,-166 102.8448,-166 102.8448,-166 285.6847,-166 285.6847,-166"/>
<polygon fill="#000000" stroke="#000000" points="285.6847,-169.5001 295.6847,-166 285.6846,-162.5001 285.6847,-169.5001"/>
</g>
<!-- NgxGauge  -->
<g id="node7" class="node">
<title>NgxGauge </title>
<polygon fill="#fb8072" stroke="#000000" points="652.1425,-252 571.8575,-252 571.8575,-216 652.1425,-216 652.1425,-252"/>
<text text-anchor="middle" x="612" y="-229.8" font-family="Times,serif" font-size="14.00" fill="#000000">NgxGauge </text>
</g>
<!-- NgxGaugeModule&#45;&gt;NgxGauge  -->
<g id="edge6" class="edge">
<title>NgxGaugeModule&#45;&gt;NgxGauge </title>
<path fill="none" stroke="#000000" stroke-dasharray="5,2" d="M416.2673,-173C487.3776,-173 596.0596,-173 596.0596,-173 596.0596,-173 596.0596,-205.698 596.0596,-205.698"/>
<polygon fill="#000000" stroke="#000000" points="592.5597,-205.698 596.0596,-215.698 599.5597,-205.698 592.5597,-205.698"/>
</g>
<!-- NgxGaugeAppend  -->
<g id="node8" class="node">
<title>NgxGaugeAppend </title>
<polygon fill="#fb8072" stroke="#000000" points="554.4645,-252 429.5355,-252 429.5355,-216 554.4645,-216 554.4645,-252"/>
<text text-anchor="middle" x="492" y="-229.8" font-family="Times,serif" font-size="14.00" fill="#000000">NgxGaugeAppend </text>
</g>
<!-- NgxGaugeModule&#45;&gt;NgxGaugeAppend  -->
<g id="edge7" class="edge">
<title>NgxGaugeModule&#45;&gt;NgxGaugeAppend </title>
<path fill="none" stroke="#000000" stroke-dasharray="5,2" d="M416.1649,-180C443.4314,-180 469.6727,-180 469.6727,-180 469.6727,-180 469.6727,-205.7181 469.6727,-205.7181"/>
<polygon fill="#000000" stroke="#000000" points="466.1728,-205.718 469.6727,-215.7181 473.1728,-205.7181 466.1728,-205.718"/>
</g>
<!-- NgxGaugeLabel  -->
<g id="node9" class="node">
<title>NgxGaugeLabel </title>
<polygon fill="#fb8072" stroke="#000000" points="412.0148,-252 299.9852,-252 299.9852,-216 412.0148,-216 412.0148,-252"/>
<text text-anchor="middle" x="356" y="-229.8" font-family="Times,serif" font-size="14.00" fill="#000000">NgxGaugeLabel </text>
</g>
<!-- NgxGaugeModule&#45;&gt;NgxGaugeLabel  -->
<g id="edge8" class="edge">
<title>NgxGaugeModule&#45;&gt;NgxGaugeLabel </title>
<path fill="none" stroke="#000000" stroke-dasharray="5,2" d="M356,-187.1061C356,-187.1061 356,-205.991 356,-205.991"/>
<polygon fill="#000000" stroke="#000000" points="352.5001,-205.9909 356,-215.991 359.5001,-205.991 352.5001,-205.9909"/>
</g>
<!-- NgxGaugePrepend  -->
<g id="node10" class="node">
<title>NgxGaugePrepend </title>
<polygon fill="#fb8072" stroke="#000000" points="282.0148,-252 155.9852,-252 155.9852,-216 282.0148,-216 282.0148,-252"/>
<text text-anchor="middle" x="219" y="-229.8" font-family="Times,serif" font-size="14.00" fill="#000000">NgxGaugePrepend </text>
</g>
<!-- NgxGaugeModule&#45;&gt;NgxGaugePrepend  -->
<g id="edge9" class="edge">
<title>NgxGaugeModule&#45;&gt;NgxGaugePrepend </title>
<path fill="none" stroke="#000000" stroke-dasharray="5,2" d="M295.6931,-180C252.2178,-180 201.1642,-180 201.1642,-180 201.1642,-180 201.1642,-205.7181 201.1642,-205.7181"/>
<polygon fill="#000000" stroke="#000000" points="197.6643,-205.718 201.1642,-215.7181 204.6643,-205.7181 197.6643,-205.718"/>
</g>
<!-- NgxGaugeValue  -->
<g id="node11" class="node">
<title>NgxGaugeValue </title>
<polygon fill="#fb8072" stroke="#000000" points="137.5696,-252 24.4304,-252 24.4304,-216 137.5696,-216 137.5696,-252"/>
<text text-anchor="middle" x="81" y="-229.8" font-family="Times,serif" font-size="14.00" fill="#000000">NgxGaugeValue </text>
</g>
<!-- NgxGaugeModule&#45;&gt;NgxGaugeValue  -->
<g id="edge10" class="edge">
<title>NgxGaugeModule&#45;&gt;NgxGaugeValue </title>
<path fill="none" stroke="#000000" stroke-dasharray="5,2" d="M295.6059,-173C211.1273,-173 67.9052,-173 67.9052,-173 67.9052,-173 67.9052,-205.698 67.9052,-205.698"/>
<polygon fill="#000000" stroke="#000000" points="64.4051,-205.698 67.9052,-215.698 71.4051,-205.698 64.4051,-205.698"/>
</g>
</g>
</svg>
