<?xml version="1.0" encoding="UTF-8" standalone="no"?>
<!DOCTYPE svg PUBLIC "-//W3C//DTD SVG 1.1//EN"
 "http://www.w3.org/Graphics/SVG/1.1/DTD/svg11.dtd">
<!-- Generated by graphviz version 2.40.1 (20161225.0304)
 -->
<!-- Title: dependencies Pages: 1 -->
<svg width="774pt" height="284pt"
 viewBox="0.00 0.00 774.00 284.00" xmlns="http://www.w3.org/2000/svg" xmlns:xlink="http://www.w3.org/1999/xlink">
<g id="graph0" class="graph" transform="scale(1 1) rotate(0) translate(4 280)">
<title>dependencies</title>
<polygon fill="#ffffff" stroke="transparent" points="-4,4 -4,-280 770,-280 770,4 -4,4"/>
<text text-anchor="start" x="362.0091" y="-42.4" font-family="sans-serif" font-weight="bold" font-size="14.00" fill="#000000">Legend</text>
<polygon fill="#ffffb3" stroke="transparent" points="149,-10 149,-30 169,-30 169,-10 149,-10"/>
<text text-anchor="start" x="172.629" y="-15.4" font-family="sans-serif" font-size="14.00" fill="#000000"> &#160;Declarations</text>
<polygon fill="#8dd3c7" stroke="transparent" points="262,-10 262,-30 282,-30 282,-10 262,-10"/>
<text text-anchor="start" x="285.7251" y="-15.4" font-family="sans-serif" font-size="14.00" fill="#000000"> &#160;Module</text>
<polygon fill="#80b1d3" stroke="transparent" points="348,-10 348,-30 368,-30 368,-10 348,-10"/>
<text text-anchor="start" x="371.7812" y="-15.4" font-family="sans-serif" font-size="14.00" fill="#000000"> &#160;Bootstrap</text>
<polygon fill="#fdb462" stroke="transparent" points="445,-10 445,-30 465,-30 465,-10 445,-10"/>
<text text-anchor="start" x="468.6732" y="-15.4" font-family="sans-serif" font-size="14.00" fill="#000000"> &#160;Providers</text>
<polygon fill="#fb8072" stroke="transparent" points="541,-10 541,-30 561,-30 561,-10 541,-10"/>
<text text-anchor="start" x="564.7258" y="-15.4" font-family="sans-serif" font-size="14.00" fill="#000000"> &#160;Exports</text>
<g id="clust1" class="cluster">
<title>cluster_WebConsoleUIKitGridModule</title>
<polygon fill="none" stroke="#000000" stroke-dasharray="1,5" points="8,-70 8,-268 758,-268 758,-70 8,-70"/>
</g>
<g id="clust2" class="cluster">
<title>cluster_WebConsoleUIKitGridModule_declarations</title>
<polygon fill="none" stroke="#000000" points="24,-78 24,-130 744,-130 744,-78 24,-78"/>
</g>
<g id="clust8" class="cluster">
<title>cluster_WebConsoleUIKitGridModule_exports</title>
<polygon fill="none" stroke="#000000" points="16,-208 16,-260 750,-260 750,-208 16,-208"/>
</g>
<!-- WCGridCellCommandComponent -->
<g id="node1" class="node">
<title>WCGridCellCommandComponent</title>
<polygon fill="#ffffb3" stroke="#000000" points="735.7063,-122 524.2937,-122 524.2937,-86 735.7063,-86 735.7063,-122"/>
<text text-anchor="middle" x="630" y="-99.8" font-family="Times,serif" font-size="14.00" fill="#000000">WCGridCellCommandComponent</text>
</g>
<!-- WebConsoleUIKitGridModule -->
<g id="node5" class="node">
<title>WebConsoleUIKitGridModule</title>
<polygon fill="#8dd3c7" stroke="#000000" points="368.1783,-187 365.1783,-191 344.1783,-191 341.1783,-187 177.8217,-187 177.8217,-151 368.1783,-151 368.1783,-187"/>
<text text-anchor="middle" x="273" y="-164.8" font-family="Times,serif" font-size="14.00" fill="#000000">WebConsoleUIKitGridModule</text>
</g>
<!-- WCGridCellCommandComponent&#45;&gt;WebConsoleUIKitGridModule -->
<g id="edge1" class="edge">
<title>WCGridCellCommandComponent&#45;&gt;WebConsoleUIKitGridModule</title>
<path fill="none" stroke="#000000" d="M666.2844,-122.0225C666.2844,-139.3734 666.2844,-163 666.2844,-163 666.2844,-163 378.2032,-163 378.2032,-163"/>
<polygon fill="#000000" stroke="#000000" points="378.2032,-159.5001 368.2032,-163 378.2031,-166.5001 378.2032,-159.5001"/>
</g>
<!-- WCGridCellComponent -->
<g id="node2" class="node">
<title>WCGridCellComponent</title>
<polygon fill="#ffffb3" stroke="#000000" points="506.3739,-122 353.6261,-122 353.6261,-86 506.3739,-86 506.3739,-122"/>
<text text-anchor="middle" x="430" y="-99.8" font-family="Times,serif" font-size="14.00" fill="#000000">WCGridCellComponent</text>
</g>
<!-- WCGridCellComponent&#45;&gt;WebConsoleUIKitGridModule -->
<g id="edge2" class="edge">
<title>WCGridCellComponent&#45;&gt;WebConsoleUIKitGridModule</title>
<path fill="none" stroke="#000000" d="M360.8261,-122.1061C360.8261,-122.1061 360.8261,-140.991 360.8261,-140.991"/>
<polygon fill="#000000" stroke="#000000" points="357.3262,-140.9909 360.8261,-150.991 364.3262,-140.991 357.3262,-140.9909"/>
</g>
<!-- WCGridComponent -->
<g id="node3" class="node">
<title>WCGridComponent</title>
<polygon fill="#ffffb3" stroke="#000000" points="335.5422,-122 206.4578,-122 206.4578,-86 335.5422,-86 335.5422,-122"/>
<text text-anchor="middle" x="271" y="-99.8" font-family="Times,serif" font-size="14.00" fill="#000000">WCGridComponent</text>
</g>
<!-- WCGridComponent&#45;&gt;WebConsoleUIKitGridModule -->
<g id="edge3" class="edge">
<title>WCGridComponent&#45;&gt;WebConsoleUIKitGridModule</title>
<path fill="none" stroke="#000000" d="M271,-122.1061C271,-122.1061 271,-140.991 271,-140.991"/>
<polygon fill="#000000" stroke="#000000" points="267.5001,-140.9909 271,-150.991 274.5001,-140.991 267.5001,-140.9909"/>
</g>
<!-- WCGridRowComponent -->
<g id="node4" class="node">
<title>WCGridRowComponent</title>
<polygon fill="#ffffb3" stroke="#000000" points="187.9846,-122 32.0154,-122 32.0154,-86 187.9846,-86 187.9846,-122"/>
<text text-anchor="middle" x="110" y="-99.8" font-family="Times,serif" font-size="14.00" fill="#000000">WCGridRowComponent</text>
</g>
<!-- WCGridRowComponent&#45;&gt;WebConsoleUIKitGridModule -->
<g id="edge4" class="edge">
<title>WCGridRowComponent&#45;&gt;WebConsoleUIKitGridModule</title>
<path fill="none" stroke="#000000" d="M182.9516,-122.1061C182.9516,-122.1061 182.9516,-140.991 182.9516,-140.991"/>
<polygon fill="#000000" stroke="#000000" points="179.4517,-140.9909 182.9516,-150.991 186.4517,-140.991 179.4517,-140.9909"/>
</g>
<!-- WCGridCellCommandComponent  -->
<g id="node6" class="node">
<title>WCGridCellCommandComponent </title>
<polygon fill="#fb8072" stroke="#000000" points="742.2064,-252 527.7936,-252 527.7936,-216 742.2064,-216 742.2064,-252"/>
<text text-anchor="middle" x="635" y="-229.8" font-family="Times,serif" font-size="14.00" fill="#000000">WCGridCellCommandComponent </text>
</g>
<!-- WebConsoleUIKitGridModule&#45;&gt;WCGridCellCommandComponent  -->
<g id="edge5" class="edge">
<title>WebConsoleUIKitGridModule&#45;&gt;WCGridCellCommandComponent </title>
<path fill="none" stroke="#000000" stroke-dasharray="5,2" d="M368.4482,-175C464.01,-175 596.9656,-175 596.9656,-175 596.9656,-175 596.9656,-205.9775 596.9656,-205.9775"/>
<polygon fill="#000000" stroke="#000000" points="593.4657,-205.9774 596.9656,-215.9775 600.4657,-205.9775 593.4657,-205.9774"/>
</g>
<!-- WCGridCellComponent  -->
<g id="node7" class="node">
<title>WCGridCellComponent </title>
<polygon fill="#fb8072" stroke="#000000" points="509.3742,-252 352.6258,-252 352.6258,-216 509.3742,-216 509.3742,-252"/>
<text text-anchor="middle" x="431" y="-229.8" font-family="Times,serif" font-size="14.00" fill="#000000">WCGridCellComponent </text>
</g>
<!-- WebConsoleUIKitGridModule&#45;&gt;WCGridCellComponent  -->
<g id="edge6" class="edge">
<title>WebConsoleUIKitGridModule&#45;&gt;WCGridCellComponent </title>
<path fill="none" stroke="#000000" stroke-dasharray="5,2" d="M360.4511,-187.1061C360.4511,-187.1061 360.4511,-205.991 360.4511,-205.991"/>
<polygon fill="#000000" stroke="#000000" points="356.9512,-205.9909 360.4511,-215.991 363.9512,-205.991 356.9512,-205.9909"/>
</g>
<!-- WCGridComponent  -->
<g id="node8" class="node">
<title>WCGridComponent </title>
<polygon fill="#fb8072" stroke="#000000" points="334.5414,-252 201.4586,-252 201.4586,-216 334.5414,-216 334.5414,-252"/>
<text text-anchor="middle" x="268" y="-229.8" font-family="Times,serif" font-size="14.00" fill="#000000">WCGridComponent </text>
</g>
<!-- WebConsoleUIKitGridModule&#45;&gt;WCGridComponent  -->
<g id="edge7" class="edge">
<title>WebConsoleUIKitGridModule&#45;&gt;WCGridComponent </title>
<path fill="none" stroke="#000000" stroke-dasharray="5,2" d="M268,-187.1061C268,-187.1061 268,-205.991 268,-205.991"/>
<polygon fill="#000000" stroke="#000000" points="264.5001,-205.9909 268,-215.991 271.5001,-205.991 264.5001,-205.9909"/>
</g>
<!-- WCGridRowComponent  -->
<g id="node9" class="node">
<title>WCGridRowComponent </title>
<polygon fill="#fb8072" stroke="#000000" points="183.9853,-252 24.0147,-252 24.0147,-216 183.9853,-216 183.9853,-252"/>
<text text-anchor="middle" x="104" y="-229.8" font-family="Times,serif" font-size="14.00" fill="#000000">WCGridRowComponent </text>
</g>
<!-- WebConsoleUIKitGridModule&#45;&gt;WCGridRowComponent  -->
<g id="edge8" class="edge">
<title>WebConsoleUIKitGridModule&#45;&gt;WCGridRowComponent </title>
<path fill="none" stroke="#000000" stroke-dasharray="5,2" d="M192.6108,-187.1061C192.6108,-206.3391 192.6108,-234 192.6108,-234 192.6108,-234 191.7288,-234 191.7288,-234"/>
<polygon fill="#000000" stroke="#000000" points="193.7905,-230.5001 183.7905,-234 193.7905,-237.5001 193.7905,-230.5001"/>
</g>
</g>
</svg>
