<?xml version="1.0" encoding="UTF-8" standalone="no"?>
<!DOCTYPE svg PUBLIC "-//W3C//DTD SVG 1.1//EN"
 "http://www.w3.org/Graphics/SVG/1.1/DTD/svg11.dtd">
<!-- Generated by graphviz version 2.40.1 (20161225.0304)
 -->
<!-- Title: dependencies Pages: 1 -->
<svg width="546pt" height="284pt"
 viewBox="0.00 0.00 546.00 284.00" xmlns="http://www.w3.org/2000/svg" xmlns:xlink="http://www.w3.org/1999/xlink">
<g id="graph0" class="graph" transform="scale(1 1) rotate(0) translate(4 280)">
<title>dependencies</title>
<polygon fill="#ffffff" stroke="transparent" points="-4,4 -4,-280 542,-280 542,4 -4,4"/>
<text text-anchor="start" x="248.0091" y="-42.4" font-family="sans-serif" font-weight="bold" font-size="14.00" fill="#000000">Legend</text>
<polygon fill="#ffffb3" stroke="transparent" points="35,-10 35,-30 55,-30 55,-10 35,-10"/>
<text text-anchor="start" x="58.629" y="-15.4" font-family="sans-serif" font-size="14.00" fill="#000000"> &#160;Declarations</text>
<polygon fill="#8dd3c7" stroke="transparent" points="148,-10 148,-30 168,-30 168,-10 148,-10"/>
<text text-anchor="start" x="171.7251" y="-15.4" font-family="sans-serif" font-size="14.00" fill="#000000"> &#160;Module</text>
<polygon fill="#80b1d3" stroke="transparent" points="234,-10 234,-30 254,-30 254,-10 234,-10"/>
<text text-anchor="start" x="257.7812" y="-15.4" font-family="sans-serif" font-size="14.00" fill="#000000"> &#160;Bootstrap</text>
<polygon fill="#fdb462" stroke="transparent" points="331,-10 331,-30 351,-30 351,-10 331,-10"/>
<text text-anchor="start" x="354.6732" y="-15.4" font-family="sans-serif" font-size="14.00" fill="#000000"> &#160;Providers</text>
<polygon fill="#fb8072" stroke="transparent" points="427,-10 427,-30 447,-30 447,-10 427,-10"/>
<text text-anchor="start" x="450.7258" y="-15.4" font-family="sans-serif" font-size="14.00" fill="#000000"> &#160;Exports</text>
<g id="clust1" class="cluster">
<title>cluster_GridsterModule</title>
<polygon fill="none" stroke="#000000" stroke-dasharray="1,5" points="8,-70 8,-268 530,-268 530,-70 8,-70"/>
</g>
<g id="clust2" class="cluster">
<title>cluster_GridsterModule_declarations</title>
<polygon fill="none" stroke="#000000" points="16,-78 16,-130 522,-130 522,-78 16,-78"/>
</g>
<g id="clust7" class="cluster">
<title>cluster_GridsterModule_exports</title>
<polygon fill="none" stroke="#000000" points="123,-208 123,-260 444,-260 444,-208 123,-208"/>
</g>
<!-- GridsterComponent -->
<g id="node1" class="node">
<title>GridsterComponent</title>
<polygon fill="#ffffb3" stroke="#000000" points="513.7008,-122 386.2992,-122 386.2992,-86 513.7008,-86 513.7008,-122"/>
<text text-anchor="middle" x="450" y="-99.8" font-family="Times,serif" font-size="14.00" fill="#000000">GridsterComponent</text>
</g>
<!-- GridsterModule -->
<g id="node4" class="node">
<title>GridsterModule</title>
<polygon fill="#8dd3c7" stroke="#000000" points="344.9188,-187 341.9188,-191 320.9188,-191 317.9188,-187 239.0812,-187 239.0812,-151 344.9188,-151 344.9188,-187"/>
<text text-anchor="middle" x="292" y="-164.8" font-family="Times,serif" font-size="14.00" fill="#000000">GridsterModule</text>
</g>
<!-- GridsterComponent&#45;&gt;GridsterModule -->
<g id="edge1" class="edge">
<title>GridsterComponent&#45;&gt;GridsterModule</title>
<path fill="none" stroke="#000000" d="M411.375,-122.1061C411.375,-141.3391 411.375,-169 411.375,-169 411.375,-169 355.0548,-169 355.0548,-169"/>
<polygon fill="#000000" stroke="#000000" points="355.0548,-165.5001 345.0548,-169 355.0548,-172.5001 355.0548,-165.5001"/>
</g>
<!-- GridsterItemComponent -->
<g id="node2" class="node">
<title>GridsterItemComponent</title>
<polygon fill="#ffffb3" stroke="#000000" points="368.3571,-122 215.6429,-122 215.6429,-86 368.3571,-86 368.3571,-122"/>
<text text-anchor="middle" x="292" y="-99.8" font-family="Times,serif" font-size="14.00" fill="#000000">GridsterItemComponent</text>
</g>
<!-- GridsterItemComponent&#45;&gt;GridsterModule -->
<g id="edge2" class="edge">
<title>GridsterItemComponent&#45;&gt;GridsterModule</title>
<path fill="none" stroke="#000000" d="M292,-122.1061C292,-122.1061 292,-140.991 292,-140.991"/>
<polygon fill="#000000" stroke="#000000" points="288.5001,-140.9909 292,-150.991 295.5001,-140.991 288.5001,-140.9909"/>
</g>
<!-- GridsterPreviewComponent -->
<g id="node3" class="node">
<title>GridsterPreviewComponent</title>
<polygon fill="#ffffb3" stroke="#000000" points="197.5702,-122 24.4298,-122 24.4298,-86 197.5702,-86 197.5702,-122"/>
<text text-anchor="middle" x="111" y="-99.8" font-family="Times,serif" font-size="14.00" fill="#000000">GridsterPreviewComponent</text>
</g>
<!-- GridsterPreviewComponent&#45;&gt;GridsterModule -->
<g id="edge3" class="edge">
<title>GridsterPreviewComponent&#45;&gt;GridsterModule</title>
<path fill="none" stroke="#000000" d="M164.1783,-122.1061C164.1783,-141.3391 164.1783,-169 164.1783,-169 164.1783,-169 229.2721,-169 229.2721,-169"/>
<polygon fill="#000000" stroke="#000000" points="229.2721,-172.5001 239.2721,-169 229.272,-165.5001 229.2721,-172.5001"/>
</g>
<!-- GridsterComponent  -->
<g id="node5" class="node">
<title>GridsterComponent </title>
<polygon fill="#fb8072" stroke="#000000" points="436.2009,-252 305.7991,-252 305.7991,-216 436.2009,-216 436.2009,-252"/>
<text text-anchor="middle" x="371" y="-229.8" font-family="Times,serif" font-size="14.00" fill="#000000">GridsterComponent </text>
</g>
<!-- GridsterModule&#45;&gt;GridsterComponent  -->
<g id="edge4" class="edge">
<title>GridsterModule&#45;&gt;GridsterComponent </title>
<path fill="none" stroke="#000000" stroke-dasharray="5,2" d="M325.1794,-187.1061C325.1794,-187.1061 325.1794,-205.991 325.1794,-205.991"/>
<polygon fill="#000000" stroke="#000000" points="321.6794,-205.9909 325.1794,-215.991 328.6794,-205.991 321.6794,-205.9909"/>
</g>
<!-- GridsterItemComponent  -->
<g id="node6" class="node">
<title>GridsterItemComponent </title>
<polygon fill="#fb8072" stroke="#000000" points="287.3574,-252 130.6426,-252 130.6426,-216 287.3574,-216 287.3574,-252"/>
<text text-anchor="middle" x="209" y="-229.8" font-family="Times,serif" font-size="14.00" fill="#000000">GridsterItemComponent </text>
</g>
<!-- GridsterModule&#45;&gt;GridsterItemComponent  -->
<g id="edge5" class="edge">
<title>GridsterModule&#45;&gt;GridsterItemComponent </title>
<path fill="none" stroke="#000000" stroke-dasharray="5,2" d="M263.2347,-187.1061C263.2347,-187.1061 263.2347,-205.991 263.2347,-205.991"/>
<polygon fill="#000000" stroke="#000000" points="259.7348,-205.9909 263.2347,-215.991 266.7348,-205.991 259.7348,-205.9909"/>
</g>
</g>
</svg>
